<svg id="Calque_1" data-name="Calque 1" xmlns="http://www.w3.org/2000/svg" xmlns:xlink="http://www.w3.org/1999/xlink" viewBox="0 0 379.65 379.65"><defs><style>.cls-1{fill:url(#Dégradé_sans_nom_28);}.cls-2{fill:#fff;}</style><linearGradient id="Dégradé_sans_nom_28" x1="-11.1" y1="-10.43" x2="390.75" y2="391.42" gradientUnits="userSpaceOnUse"><stop offset="0" stop-color="#205081"/><stop offset="0.5" stop-color="#2681cf"/><stop offset="1" stop-color="#26d0ce"/></linearGradient></defs><title>logo</title><rect class="cls-1" x="-11.1" y="-10.43" width="401.85" height="401.85"/><path class="cls-2" d="M283.14,102.58c-22.53,5.19-45.55,18.66-64.84,37.95a152,152,0,0,0-28.48,39,152.08,152.08,0,0,0-28.48-39C142.06,121.24,119,107.76,96.5,102.58c-24.54-5.64-45.82-1-59.93,13.12S17.8,151.09,23.45,175.63c5.19,22.53,18.67,45.56,38,64.84s42.32,32.77,64.84,38a87.42,87.42,0,0,0,19.51,2.33h0c16.33,0,30.31-5.35,40.41-15.45a50.3,50.3,0,0,0,3.65-4.13,50.26,50.26,0,0,0,3.65,4.13c10.11,10.11,24.08,15.45,40.41,15.45a87.41,87.41,0,0,0,19.51-2.33c22.53-5.19,45.56-18.66,64.84-38s32.76-42.31,38-64.84c5.65-24.53,1-45.82-13.12-59.93S307.68,96.94,283.14,102.58ZM169.24,248.37c-8.06,8.06-21.42,10.46-37.63,6.72-18.21-4.19-37.14-15.4-53.29-31.55S51,188.47,46.78,170.26c-3.73-16.2-1.34-29.57,6.72-37.63,5.52-5.52,13.65-8.44,23.52-8.44a63.14,63.14,0,0,1,14.11,1.72c18.21,4.19,37.13,15.39,53.29,31.55s27.35,35.08,31.55,53.28C179.69,226.94,177.31,240.31,169.24,248.37Zm163.62-78.11c-4.19,18.21-15.4,37.13-31.55,53.28S266.24,250.9,248,255.09c-16.2,3.74-29.56,1.35-37.63-6.72s-10.45-21.43-6.72-37.63c4.19-18.21,15.4-37.13,31.55-53.28s35.08-27.36,53.29-31.55a63.23,63.23,0,0,1,14.1-1.72c9.87,0,18,2.92,23.52,8.44C334.21,140.69,336.59,154.06,332.86,170.26Z"/></svg>