<svg id="Calque_1" data-name="Calque 1" xmlns="http://www.w3.org/2000/svg" viewBox="0 0 176.51 78.23"><defs><style>.cls-1{fill:#fff;}</style></defs><title>logo-alt-w</title><path class="cls-1" d="M41.5,58.39V33.71c0-9.37-5.72-14.36-13.6-14.36-6.31,0-9.84,3.35-11.19,5.87h-.26V20H9.2V58.39h7.33V35.28c0-5.14,2.81-9.44,8.86-9.44,5.1,0,8.79,3,8.79,9.26V58.39Z"/><path class="cls-1" d="M46,58.64c0,4.81-1.46,6.93-5.25,6.93a13.62,13.62,0,0,1-2.3-.18V71a22.63,22.63,0,0,0,3.75.33c6.82,0,11.12-3.72,11.12-12.61V19.35H46Z"/><path class="cls-1" d="M49.71,5.64C47.68,5.64,46,7.5,46,10s1.64,4.34,3.66,4.34,3.66-1.86,3.66-4.34S51.73,5.64,49.71,5.64Z"/><path class="cls-1" d="M153.32,19.4c-6.27,0-9.77,3.35-11.12,5.87h-.26V6.05h-7.36V58.44h7.36V35.33c0-5.14,2.77-9.44,8.86-9.44,5.14,0,8.79,3,8.79,9.26V58.44H167V33.76C167,24.39,161.2,19.4,153.32,19.4Z"/><path class="cls-1" d="M113.93,20.07a29.64,29.64,0,0,0-13.86,8.11A32.5,32.5,0,0,0,94,36.53a32.51,32.51,0,0,0-6.09-8.34A29.63,29.63,0,0,0,74,20.07c-5.25-1.21-9.8-.21-12.81,2.81s-4,7.57-2.81,12.81a29.64,29.64,0,0,0,8.11,13.86,29.64,29.64,0,0,0,13.86,8.11,18.69,18.69,0,0,0,4.17.5h0a11.89,11.89,0,0,0,8.64-3.3A10.75,10.75,0,0,0,94,54a10.74,10.74,0,0,0,.78.88,11.89,11.89,0,0,0,8.64,3.3,18.69,18.69,0,0,0,4.17-.5,29.64,29.64,0,0,0,13.86-8.11,29.64,29.64,0,0,0,8.11-13.86c1.21-5.25.21-9.8-2.81-12.81S119.17,18.87,113.93,20.07ZM89.58,51.24c-1.72,1.72-4.58,2.24-8,1.44a24.49,24.49,0,0,1-11.39-6.74A24.49,24.49,0,0,1,63.4,34.54c-.8-3.46-.29-6.32,1.44-8a6.92,6.92,0,0,1,5-1.8,13.5,13.5,0,0,1,3,.37,24.49,24.49,0,0,1,11.39,6.74A24.49,24.49,0,0,1,91,43.2C91.81,46.66,91.3,49.52,89.58,51.24Zm35-16.7a24.49,24.49,0,0,1-6.74,11.39,24.49,24.49,0,0,1-11.39,6.74c-3.46.8-6.32.29-8-1.44s-2.23-4.58-1.44-8a24.49,24.49,0,0,1,6.74-11.39,24.49,24.49,0,0,1,11.39-6.74,13.52,13.52,0,0,1,3-.37,6.92,6.92,0,0,1,5,1.8C124.84,28.22,125.35,31.08,124.56,34.54Z"/></svg>