<svg id="Calque_1" data-name="Calque 1" xmlns="http://www.w3.org/2000/svg" viewBox="0 0 176.51 78.23"><defs><style>.cls-1{fill:#fff;}</style></defs><title>Logo</title><path class="cls-1" d="M35.86,60.8V33.13c0-10.5-6.42-16.1-15.24-16.1-7.07,0-11,3.76-12.55,6.58H7.78V17.72H-.36V60.8H7.86V34.89c0-5.76,3.15-10.59,9.93-10.59,5.72,0,9.85,3.35,9.85,10.38V60.8Z"/><path class="cls-1" d="M41,61.09c0,5.39-1.63,7.76-5.88,7.76a15.27,15.27,0,0,1-2.57-.2v6.29a25.37,25.37,0,0,0,4.21.37c7.64,0,12.47-4.17,12.47-14.14V17H41Z"/><path class="cls-1" d="M45.06,1.66C42.79,1.66,41,3.75,41,6.53s1.84,4.86,4.11,4.86,4.11-2.08,4.11-4.86S47.33,1.66,45.06,1.66Z"/><path class="cls-1" d="M161.23,17.08c-7,0-11,3.76-12.47,6.58h-.29V2.12h-8.26V60.85h8.26V34.94c0-5.76,3.11-10.59,9.93-10.59,5.76,0,9.85,3.35,9.85,10.38V60.85h8.26V33.19C176.51,22.68,170.05,17.08,161.23,17.08Z"/><path class="cls-1" d="M117.06,17.84a33.23,33.23,0,0,0-15.54,9.1,36.44,36.44,0,0,0-6.83,9.35,36.45,36.45,0,0,0-6.83-9.35,33.22,33.22,0,0,0-15.54-9.1c-5.88-1.35-11-.24-14.36,3.15s-4.5,8.48-3.15,14.36a33.23,33.23,0,0,0,9.1,15.54A33.23,33.23,0,0,0,79.45,60a21,21,0,0,0,4.68.56h0a13.33,13.33,0,0,0,9.69-3.7,12.06,12.06,0,0,0,.88-1,12,12,0,0,0,.88,1,13.33,13.33,0,0,0,9.69,3.7,21,21,0,0,0,4.68-.56,33.23,33.23,0,0,0,15.54-9.1,33.23,33.23,0,0,0,9.1-15.54c1.35-5.88.24-11-3.15-14.36S122.94,16.49,117.06,17.84ZM89.76,52.79c-1.93,1.93-5.13,2.51-9,1.61A27.46,27.46,0,0,1,68,46.84a27.46,27.46,0,0,1-7.56-12.77c-.89-3.88-.32-7.09,1.61-9a7.76,7.76,0,0,1,5.64-2,15.13,15.13,0,0,1,3.38.41A27.46,27.46,0,0,1,83.81,31a27.46,27.46,0,0,1,7.56,12.77C92.26,47.65,91.69,50.85,89.76,52.79ZM129,34.06a27.46,27.46,0,0,1-7.56,12.77,27.45,27.45,0,0,1-12.77,7.56c-3.88.9-7.09.32-9-1.61s-2.5-5.14-1.61-9A27.45,27.45,0,0,1,105.58,31a27.46,27.46,0,0,1,12.77-7.56,15.15,15.15,0,0,1,3.38-.41,7.76,7.76,0,0,1,5.64,2C129.3,27,129.87,30.18,129,34.06Z"/></svg>